<?xml version="1.0" encoding="UTF-8" standalone="no"?>
<svg
   version="1.1"
   width="612pt"
   height="198pt"
   viewBox="0 0 612 198"
   id="svg86"
   sodipodi:docname="template.svg"
   inkscape:version="1.1.1 (3bf5ae0d25, 2021-09-20)"
   xmlns:inkscape="http://www.inkscape.org/namespaces/inkscape"
   xmlns:sodipodi="http://sodipodi.sourceforge.net/DTD/sodipodi-0.dtd"
   xmlns="http://www.w3.org/2000/svg"
   xmlns:svg="http://www.w3.org/2000/svg">
  <defs
     id="defs90" />
  <sodipodi:namedview
     id="namedview88"
     pagecolor="#ffffff"
     bordercolor="#666666"
     borderopacity="1.0"
     inkscape:pageshadow="2"
     inkscape:pageopacity="0.0"
     inkscape:pagecheckerboard="0"
     inkscape:document-units="pt"
     showgrid="false"
     inkscape:snap-bbox="true"
     inkscape:bbox-paths="true"
     inkscape:bbox-nodes="true"
     inkscape:snap-bbox-edge-midpoints="true"
     inkscape:snap-bbox-midpoints="true"
     inkscape:object-paths="true"
     inkscape:snap-intersection-paths="true"
     inkscape:snap-smooth-nodes="true"
     inkscape:snap-midpoints="true"
     inkscape:snap-object-midpoints="true"
     inkscape:snap-center="true"
     inkscape:snap-text-baseline="true"
     inkscape:snap-page="true"
     inkscape:zoom="0.5"
     inkscape:cx="513"
     inkscape:cy="-129"
     inkscape:window-width="1920"
     inkscape:window-height="1017"
     inkscape:window-x="-8"
     inkscape:window-y="-8"
     inkscape:window-maximized="1"
     inkscape:current-layer="g84" />
  <g
     enable-background="new"
     id="g84">
    <clipPath
       id="cp0">
      <path
         transform="matrix(.24,0,0,.24,0,0)"
         d="M 0 0 L 2550 0 L 2550 856.25 L 0 856.25 Z "
         fill-rule="evenodd"
         id="path2" />
    </clipPath>
    <clipPath
       id="cp1">
      <path
         transform="matrix(.24,0,0,.24,0,0)"
         d="M 0 0 L 2550 0 L 2550 825 L 0 825 Z "
         fill-rule="evenodd"
         id="path11" />
    </clipPath>
    <clipPath
       id="cp2">
      <path
         transform="matrix(.24,0,0,.24,0,0)"
         d="M 0 0 L 2550 0 L 2550 825 L 0 825 Z "
         fill-rule="evenodd"
         id="path18" />
    </clipPath>
    <clipPath
       id="cp3">
      <path
         transform="matrix(.24,0,0,.24,0,0)"
         d="M 0 0 L 1881.25 0 L 1881.25 825 L 0 825 Z "
         fill-rule="evenodd"
         id="path25" />
    </clipPath>
    <clipPath
       id="cp4">
      <path
         transform="matrix(.24,0,0,.24,0,0)"
         d="M 0 0 L 2550 0 L 2550 825 L 0 825 Z "
         fill-rule="evenodd"
         id="path32" />
    </clipPath>
  </g>
</svg>
